<svg width="28" height="28" viewBox="0 0 28 28" fill="none" xmlns="http://www.w3.org/2000/svg">
<path d="M24.2278 0H3.77406C1.69029 0 0.000976562 1.68923 0.000976562 3.77306V24.2268C0.000976562 26.3106 1.69022 27.9999 3.77406 27.9999H13.8618L13.879 17.9942H11.2795C10.9417 17.9942 10.6675 17.7211 10.6662 17.3832L10.6537 14.158C10.6524 13.8184 10.9274 13.5423 11.2671 13.5423H13.8618V10.4259C13.8618 6.80938 16.0706 4.84014 19.2968 4.84014H21.9442C22.2829 4.84014 22.5576 5.11474 22.5576 5.45352V8.17305C22.5576 8.51169 22.2831 8.78622 21.9445 8.78642L20.3199 8.78718C18.5654 8.78718 18.2256 9.6209 18.2256 10.8444V13.5424H22.0809C22.4482 13.5424 22.7332 13.8631 22.69 14.228L22.3077 17.4532C22.2711 17.7618 22.0094 17.9944 21.6986 17.9944H18.2428L18.2256 28H24.228C26.3117 28 28.001 26.3108 28.001 24.227V3.77306C28.0009 1.68923 26.3117 0 24.2278 0Z" fill="#09426B"/>
</svg>
