<svg width="28" height="24" viewBox="0 0 28 24" fill="none" xmlns="http://www.w3.org/2000/svg">
<path d="M27.5548 3.06394C26.9327 3.3398 26.2869 3.55744 25.6242 3.715C26.3544 3.02113 26.9034 2.15326 27.2131 1.18455C27.3015 0.908 27.0012 0.668861 26.7514 0.816932C25.8296 1.36375 24.8365 1.77397 23.7999 2.03631C23.7398 2.05154 23.6777 2.05925 23.6155 2.05925C23.4266 2.05925 23.2431 1.98914 23.0987 1.86189C21.9958 0.889841 20.5772 0.354492 19.1045 0.354492C18.4672 0.354492 17.8238 0.453821 17.1921 0.649746C15.2347 1.25684 13.7245 2.87142 13.2506 4.86345C13.0729 5.61063 13.0247 6.3585 13.1075 7.08622C13.117 7.16985 13.0774 7.22821 13.0531 7.25559C13.0103 7.30358 12.9496 7.33109 12.8866 7.33109C12.8795 7.33109 12.8723 7.33075 12.8651 7.33007C8.58056 6.932 4.71693 4.86782 1.98591 1.51783C1.84665 1.34696 1.57959 1.36791 1.46859 1.55831C0.933784 2.47582 0.651159 3.52522 0.651159 4.59305C0.651159 6.22954 1.30864 7.77176 2.45067 8.89604C1.97042 8.78217 1.50559 8.60284 1.0738 8.36302C0.864903 8.24696 0.607878 8.39612 0.604943 8.63506C0.575042 11.0662 1.99841 13.2294 4.13065 14.2035C4.08771 14.2045 4.04477 14.205 4.00177 14.205C3.66378 14.205 3.32156 14.1724 2.98473 14.108C2.74948 14.0631 2.55185 14.2863 2.62489 14.5143C3.31698 16.6751 5.17739 18.2677 7.40371 18.6293C5.556 19.8697 3.40429 20.5239 1.1648 20.5239L0.466634 20.5235C0.251525 20.5235 0.0695939 20.6637 0.0147756 20.8721C-0.0392236 21.0773 0.0602413 21.2938 0.243674 21.4005C2.76723 22.8691 5.6457 23.6453 8.56916 23.6453C11.1281 23.6453 13.5219 23.1375 15.6839 22.136C17.6659 21.2179 19.4173 19.9054 20.8896 18.2352C22.261 16.6792 23.3335 14.883 24.0771 12.8966C24.7859 11.0031 25.1605 8.98267 25.1605 7.05372V6.96184C25.1605 6.65211 25.3006 6.36068 25.545 6.1623C26.4724 5.40931 27.28 4.52294 27.9452 3.52781C28.1209 3.26505 27.8438 2.93573 27.5548 3.06394Z" fill="#09426B"/>
</svg>
